<svg id="Calque_1" data-name="Calque 1" xmlns="http://www.w3.org/2000/svg" viewBox="0 0 2000 2000"><defs><style>.cls-1{fill:none;stroke-linecap:round;stroke-linejoin:round;stroke-width:5px;}.cls-1,.cls-5{stroke:#e84626;}.cls-2,.cls-5{fill:#e84626;}.cls-3{opacity:0.8;}.cls-4{fill:#1d1d1b;}.cls-5{stroke-miterlimit:10;stroke-width:2px;}</style></defs><title>Plan de travail 1</title><path class="cls-1" d="M1630.41,610.11c-25.92-15.17-51.7-30.65-77.85-45.45-35.91-20.32-72.26-39.91-108.18-60.21-51.36-29-102.5-58.39-153.79-87.54-34.71-19.73-69.52-39.23-104.25-59q-76.89-43.71-153.74-87.57c-31.41-17.84-63.38-34.73-94-53.78-6.91-4.3-11.81-4.19-18.05-3Q778.7,239.7,636.91,266q-144,26.51-288,52.73c-5.62,1.06-11.21,2.31-17.4,3.68-2.07.48-4.21.94-6.43,1.41C240.54,617,155.51,912,70.53,1206.76,119.11,1234.45,167,1261.86,215,1289c50.84,28.76,101.91,57.13,152.74,86,38.5,21.88,76.62,44.43,115.17,66.28,68.18,38.64,136.65,76.8,204.84,115.49,25.75,14.59,50.85,30.35,76.61,44.92a41.64,41.64,0,0,0,14.69,4.89c7.52,1.09,15.36.4,23.13-1q173.82-32.16,347.68-64.28c73-13.38,146.11-26.22,219.16-39.41,6.34-1.16,12.53-3.31,18.4-4.87q126.91-440.29,253.29-878.77c-2.51-1.38-5.45-3-8.4-4.67"/><path class="cls-1" d="M1437.48,753.7c-.83,4.56-1.28,9.25-2.57,13.69q-76.73,266.56-153.6,533.11-2.16,7.5-4.34,15c-4.25,14.7-8.53,29.57-13,45-.11.34-.18.67-.29,1,25,15.14,49.22,29.78,74.38,45l4.29,2.57q97.38-337.84,194.81-675.79-50.1,8.91-100.18,17.84-180.57,32.17-362.41,64.6-47.22,163.78-94.74,328.64"/><path class="cls-1" d="M728.75,673.53c-26.39-15.28-52.68-30.79-79.21-45.85-26.8-15.23-53.9-29.95-80.82-45q-65.85-36.93-131.67-74c-1-.56-2-1.13-3-1.66-14.72-8.31-29.44-16.65-44.24-24.89-3.17-1.78-6.65-3.06-10.82-4.94-64.88,225.1-129.3,448.55-194.38,674.3,1.7,1,3.38,1.91,5.07,2.89,177.62,100.86,355.17,201.73,535.13,303.93q7-24.29,14-48.51,27.36-94.87,54.55-189.25"/><path class="cls-1" d="M940.2,275.47c-1,5-1.56,10.13-3,15q-12.66,44-25.33,87.94c-.14.48-.26.94-.4,1.38Q853,583.09,794.46,786.3,765,889,736.66,991.94c-5.63,20.33-10,41-15,61.53,0,.17-.09.35-.13.52"/><path class="cls-1" d="M809.59,398.05c-.83,4.56-1.25,9.27-2.57,13.69-10.87,36.8-22,73.53-32.88,110.33Q767.6,544,761.23,566q-15.6,54-31.18,107.92-47.73,165.33-95.59,331.71c-38.05,7.29-77.79,15.22-117.67,22.5q-111.06,20.25-222.24,39.81c-5.71,1-11.68.59-17.51.84"/><path class="cls-1" d="M1492.36,583.32c-21.25-11.42-42.7-22.47-63.71-34.34q-113.65-64.19-227-128.91C1135.1,382,1068.88,343.27,1002.41,305c-16.44-9.47-32.77-19.31-50-26.94a37.28,37.28,0,0,0-12.15-2.83,59.64,59.64,0,0,0-14.45.68C864.23,286.53,802.86,298,741.4,309.1q-121.78,22-243.55,44c-4.06.74-21.47.67-25.33,2.44"/><path class="cls-1" d="M689.32,1155.84q11.82-38.44,23.58-76.92c2.3-7.51,4.38-15.09,7-24.29l1,.54c8.31,4.18,17.65,8.54,26.61,13.61q96.74,55.11,193.31,110.53c63.6,36.52,127,73.46,190.73,109.7,40,22.72,80.51,44.45,120.7,66.79,1.85,1,2.84,3.58,4.24,5.41"/><path class="cls-1" d="M432.3,510.14c-3.85,13.32-7.74,26.64-11.54,40q-70.78,248-141.47,496.18-3,10.73-5.86,21.51c-6,22.76-11.47,45.69-17.33,68.53"/><path class="cls-1" d="M1628.9,615.44q-107.22,18.91-214.43,37.82c-76.14,13.56-152.21,27.43-228.34,40.92-50.1,8.88-100.27,17.28-150.49,25.93-.25-.15-.54-.29-.8-.44Q970.69,684,906.36,648.23"/><path class="cls-1" d="M1336.67,1408.85c-25.1,5.27-50.1,11.1-75.3,15.71-85.23,15.65-170.52,30.78-255.77,46.23-38.65,7-77.26,14.28-115.9,21.37-2.85.53-5.81.63-10.39,1.09,4.64-16.15,9-31.28,13.36-46.4q3.44-12,6.93-23.95h0q15.73-54.63,31.57-109.28c1.29-4.44,3.42-8.65,5.13-13"/><path class="cls-1" d="M335.56,324.91c16.36,10,32.42,20.56,49.13,29.94,85.71,48,171.64,95.65,257.36,143.64,39.43,22.09,78.55,44.71,117.8,67.11"/><path class="cls-1" d="M716.79,1055.51q-64.71,11.64-129.42,23.3-159,28.55-318.12,57c-1.19.22-2.28,1.21-3.41,1.85"/><path class="cls-1" d="M1034,721.12c-.6,3.69-.79,7.48-1.79,11q-53.31,185.29-106.82,370.5c-1,3.56-2.88,6.88-4.35,10.3"/><path class="cls-1" d="M264.28,1143c25.51,15,50.78,30.48,76.56,45,16.81,9.51,33.88,18.51,50.89,27.64,9.68,5.18,19.35,10.43,28.91,15.8,41.08,23,81.84,46.67,122.79,69.92q93,52.89,186.09,105.57c2,1.11,4.41,1.33,6.64,2"/><path class="cls-1" d="M1314.73,608.61c-17.12-10.72-34-21.92-51.4-32-36.22-20.94-72.74-41.35-109.17-61.89-43.87-24.73-87.87-49.19-131.63-74.1-16.78-9.52-33.46-19.2-50.13-28.9q-22-12.76-43.93-25.51c-4.45-2.58-9.23-4.64-13.86-7"/><path class="cls-1" d="M877.85,1267.93q-49.24,168.4-98.51,336.79"/><path class="cls-1" d="M836.59,1065.51c1.36-3,3.09-5.86,4-9q38.91-134.6,77.63-269.2c.53-1.81.76-3.7,1.47-7.17-15-8.08-29.73-16-44.44-24"/><path class="cls-1" d="M721.49,1053.5l.21,0c20-4.32,45.15-7.85,65.31-10.29a13.81,13.81,0,0,1,4.19.15c6.23,1.09,13,5.56,18.89,8.91q12.87,7.3,25.69,14.68c28,16.08,56,32.3,84,48.35q20.71,11.88,41.54,23.58c5.48,3.07,11,6.16,16.49,9.22,63.23,35.36,126.78,70.07,190,105.38,35.73,19.93,71.06,40.59,106.59,60.93"/><path class="cls-1" d="M970.93,414.24c-17.75,63.2-35,126.54-53.33,189.6q-6.36,22-12.76,43.95-15.6,54-31.35,107.88Q834.1,890.82,794.65,1026c-1.42,4.86-2,10-2.94,15"/><path class="cls-1" d="M1092.68,1389c-11.75-7.71-23.16-16-35.27-23-39.67-23-79.27-46.15-119.18-68.81q-15.9-9-31.91-18-13.29-7.41-26.72-14.52c-28.53-15.17-57.36-29.71-85.45-45.58l-.26-.16c-35.32-20-69.6-41.77-103.64-62.35-.26.07-.53.09-.77.14-95.19,18-189,35.61-282.83,53.4-4.87.94-9.53,3-14.32,4.47"/><path class="cls-1" d="M1492.51,583.5l-.11,0c-25.55,5.12-64.76,8.22-90.41,12.53-28,4.71-56.28,7.16-84.17,12.19-1,.17-2,.37-3.06.57-54.11,9.77-108,20.88-162.07,31-39.41,7.34-79,13.61-118.49,21-8.5,1.58-14.86-1-21.78-4.94-29.71-17-59.58-33.63-89.41-50.36a18.18,18.18,0,0,0-4-1.17"/><path class="cls-1" d="M911.57,379.81h-.07c-16.42,2-33,3.23-49.28,6.1q-26.52,4.65-53.1,9.39-87.63,15.6-175.24,31.59c-5.49,1-10.7,3.53-16,5.38"/><path class="cls-1" d="M1264,1360.47l-7.35,1.23c-54.22,9.21-108.51,18.1-162.63,27.84l-1.23.23c-58.21,10.47-116.24,21.82-174.37,32.68-5.27,1-10.79.82-16.17,1.21"/><path class="cls-1" d="M472.47,355.72C479,358.09,486,359.61,492,363c23.27,13,46.17,26.76,69.36,40q27.58,15.76,55.23,31.52,44.26,25.27,88.62,50.33c22.26,12.56,44.86,24.54,67.33,36.79"/><path class="cls-1" d="M719.49,1054.49l-1.53-.92c-24.45-14.57-57.17-31.22-81.27-45.7"/><path class="cls-1" d="M262.39,1139.6c-.79,0-1.57,0-2.38,0-1.58,0-3.17-.07-4.74-.11a51.1,51.1,0,0,0-11.7.62c-17.65,3.57-35.12,8-52.66,12.09"/><path class="cls-2" d="M74.34,1362.39h26.52l2.73,34.32h1.17q9.75-17.93,23.6-28.47t30.22-10.53a50.59,50.59,0,0,1,20.28,3.9l-6.24,28.08a72.12,72.12,0,0,0-8.58-2.34,50.91,50.91,0,0,0-9.75-.78q-12.09,0-25.15,9.75t-22.82,33.93v121.67h-32Z"/><path class="cls-2" d="M206.16,1457.55q0-23.4,7.21-41.93a98.2,98.2,0,0,1,19.11-31.39,82.88,82.88,0,0,1,27.1-19.69,76.36,76.36,0,0,1,31.59-6.83q17.94,0,32.17,6.24a62.74,62.74,0,0,1,23.79,17.94A82.32,82.32,0,0,1,361.76,1410a124,124,0,0,1,5.07,36.66,109.55,109.55,0,0,1-1.17,17.55H237.74q1.95,30.81,18.92,48.74t44.26,17.94a74.5,74.5,0,0,0,25.15-4.09,110.82,110.82,0,0,0,22-10.73l11.31,21.06a161.1,161.1,0,0,1-27.69,13.65q-15.21,5.85-34.71,5.85a92.92,92.92,0,0,1-35.68-6.82,84.49,84.49,0,0,1-28.86-19.5,90.11,90.11,0,0,1-19.3-31Q206.15,1480.95,206.16,1457.55Zm132.59-14.43q0-29.25-12.29-44.65T292,1383.06a46.75,46.75,0,0,0-19.3,4.1,53.43,53.43,0,0,0-16.58,11.7,62.47,62.47,0,0,0-12.28,18.71,86.27,86.27,0,0,0-6.44,25.55Z"/><path class="cls-2" d="M402.7,1362.39h33.15L471.73,1470q4.27,14,8.77,28.08t8.77,27.68h1.57q4.28-13.63,8.57-27.68L508,1470l35.88-107.64h31.59l-67.08,189.53H470.94Z"/><g class="cls-3"><path class="cls-4" d="M743.33,1366.24h14.51l1.53,34h1.14q9.16-17.18,22.33-27.87a45.78,45.78,0,0,1,29.59-10.69,53.64,53.64,0,0,1,9.54.77,33.12,33.12,0,0,1,8.78,3l-3.82,15.27a37.37,37.37,0,0,0-8-2.48,55.2,55.2,0,0,0-8.78-.57q-12.21,0-25.77,10.49t-24.23,36.46v124.83h-16.8Z"/><path class="cls-4" d="M843.39,1458.23q0-22.51,6.68-40.46A92.59,92.59,0,0,1,868,1387.42a80.36,80.36,0,0,1,25.57-19.09,69.42,69.42,0,0,1,29.59-6.68q32.82,0,51.53,22.14t18.71,62.61v6.87a31.52,31.52,0,0,1-.77,6.87H860.57a106.39,106.39,0,0,0,5.35,31.88,75.27,75.27,0,0,0,13.93,25.19,63.5,63.5,0,0,0,21.57,16.41,65.53,65.53,0,0,0,28.25,5.92,78,78,0,0,0,26.91-4.39,87.92,87.92,0,0,0,22.33-12l6.87,13a226.28,226.28,0,0,1-24.24,12.21q-13.17,5.73-33.4,5.73a84.52,84.52,0,0,1-33-6.49,76.76,76.76,0,0,1-26.92-18.9,91.15,91.15,0,0,1-18.13-30.15Q843.4,1480.75,843.39,1458.23Zm134-11.07q0-35.51-14.51-53.25t-39.32-17.75a53,53,0,0,0-22.52,5,62.16,62.16,0,0,0-19.28,14.13,74.15,74.15,0,0,0-14.12,22.33,99.33,99.33,0,0,0-7.07,29.58Z"/><path class="cls-4" d="M1031.53,1516.25a127.58,127.58,0,0,0,25.19,16.61q13.37,6.69,33.21,6.68,21.77,0,32.64-10.88t10.88-25.38a27.69,27.69,0,0,0-4-14.89,37.6,37.6,0,0,0-10.5-11.07,80.87,80.87,0,0,0-14.31-8q-7.83-3.43-15.84-6.49-10.3-3.81-20.81-8a91.41,91.41,0,0,1-18.89-10.12,49.28,49.28,0,0,1-13.56-14.12q-5.15-8.2-5.15-20a47.67,47.67,0,0,1,3.82-18.89,42.88,42.88,0,0,1,11.45-15.65,56,56,0,0,1,18.51-10.5q10.89-3.81,25.39-3.82A78.88,78.88,0,0,1,1118,1367a82.35,82.35,0,0,1,23.86,13.74l-9.16,11.84a108.12,108.12,0,0,0-19.47-11.65q-10.31-4.77-24.43-4.77a52.27,52.27,0,0,0-18.33,2.86,40.25,40.25,0,0,0-12.78,7.45,28.51,28.51,0,0,0-7.64,10.68,32.19,32.19,0,0,0-2.48,12.22,24.22,24.22,0,0,0,3.62,13.55,35.38,35.38,0,0,0,9.74,9.74,75.36,75.36,0,0,0,13.94,7.44q7.82,3.24,15.84,6.3l21.37,8.4a89.6,89.6,0,0,1,19.28,10.31,49.24,49.24,0,0,1,13.93,15.07q5.35,9,5.35,22.33a49.42,49.42,0,0,1-4,19.66,45.7,45.7,0,0,1-12,16.42,60.73,60.73,0,0,1-19.48,11.26,76.2,76.2,0,0,1-26.33,4.2,94,94,0,0,1-37.79-7.45,117.64,117.64,0,0,1-29.4-17.75Z"/><path class="cls-4" d="M1182,1458.23q0-22.51,6.68-40.46a92.59,92.59,0,0,1,17.95-30.35,80.36,80.36,0,0,1,25.57-19.09,69.41,69.41,0,0,1,29.58-6.68q32.84,0,51.54,22.14t18.7,62.61v6.87a31.51,31.51,0,0,1-.76,6.87H1199.16a106.39,106.39,0,0,0,5.34,31.88,75.46,75.46,0,0,0,13.94,25.19,63.41,63.41,0,0,0,21.57,16.41,65.53,65.53,0,0,0,28.25,5.92,77.88,77.88,0,0,0,26.9-4.39,87.58,87.58,0,0,0,22.33-12l6.88,13a226.28,226.28,0,0,1-24.24,12.21q-13.17,5.73-33.4,5.73a84.52,84.52,0,0,1-33-6.49,76.67,76.67,0,0,1-26.92-18.9,91.15,91.15,0,0,1-18.13-30.15Q1182,1480.75,1182,1458.23Zm134-11.07q0-35.51-14.51-53.25t-39.32-17.75a52.94,52.94,0,0,0-22.51,5,62.16,62.16,0,0,0-19.28,14.13,74.15,74.15,0,0,0-14.12,22.33,99.33,99.33,0,0,0-7.07,29.58Z"/><path class="cls-4" d="M1353.75,1503.66q0-30.15,28.63-46.19t89.71-22.9a105.32,105.32,0,0,0-1.33-20.81,54.19,54.19,0,0,0-6.5-18.7,37.37,37.37,0,0,0-13.36-13.37q-8.58-5.14-22-5.15a78.24,78.24,0,0,0-34,7.25q-15.27,7.26-24.43,14.13l-7.63-12.6q4.95-3.43,12-7.63a112.23,112.23,0,0,1,15.65-7.64,138.85,138.85,0,0,1,18.9-5.91,90.65,90.65,0,0,1,21.37-2.49q16.42,0,27.49,5.54a48.4,48.4,0,0,1,17.94,15.08,60.33,60.33,0,0,1,9.74,22.33,127.14,127.14,0,0,1,2.86,27.67v117.2h-14.13l-1.91-23.67h-.76a203.93,203.93,0,0,1-30.34,19.66,72.91,72.91,0,0,1-34.55,8.59,67.19,67.19,0,0,1-20.62-3.06,50.71,50.71,0,0,1-17-9.16,41.31,41.31,0,0,1-11.65-15.65Q1353.75,1516.64,1353.75,1503.66Zm17.56-.77q0,19.86,11.45,28.25t27.11,8.4a64.63,64.63,0,0,0,30.53-7.63q14.5-7.64,31.69-22.15v-62.22q-28.24,3.45-47.52,8.4t-31.11,11.83q-11.85,6.88-17,15.66A37.78,37.78,0,0,0,1371.31,1502.89Z"/><path class="cls-4" d="M1539.37,1366.24h14.51l1.53,34h1.14q9.17-17.18,22.34-27.87a45.75,45.75,0,0,1,29.58-10.69,53.56,53.56,0,0,1,9.54.77,33.12,33.12,0,0,1,8.78,3l-3.82,15.27a37.3,37.3,0,0,0-8-2.48,55.43,55.43,0,0,0-8.79-.57q-12.21,0-25.76,10.49t-24.24,36.46v124.83h-16.8Z"/><path class="cls-4" d="M1642.77,1458.23q0-22.9,6.87-41t18.33-30.34a78.81,78.81,0,0,1,26.53-18.71,79.85,79.85,0,0,1,31.87-6.49q19.1,0,31.87,6.87a99.45,99.45,0,0,1,22,15.66l-9.92,11.83a83.77,83.77,0,0,0-19.47-13.93,51.53,51.53,0,0,0-24-5.54,58.35,58.35,0,0,0-26.15,5.92,63.25,63.25,0,0,0-21,16.8,82.33,82.33,0,0,0-14.12,25.76,101,101,0,0,0-5.15,33.21,106.85,106.85,0,0,0,4.77,32.83,78.44,78.44,0,0,0,13.36,25.58,59.22,59.22,0,0,0,21,16.6,62.47,62.47,0,0,0,27.29,5.92,60.05,60.05,0,0,0,26.92-6.11,92.13,92.13,0,0,0,21.94-14.89l8.79,11.46a108.5,108.5,0,0,1-26.34,17.56,74.15,74.15,0,0,1-32.07,6.87,82.72,82.72,0,0,1-33-6.49,76.65,76.65,0,0,1-26.34-18.71,85.94,85.94,0,0,1-17.56-30Q1642.77,1481.13,1642.77,1458.23Z"/><path class="cls-4" d="M1824.25,1275H1841v119.87a169.31,169.31,0,0,1,29.4-23.86q14.89-9.36,34-9.36,28.63,0,42,17.18t13.36,53.06v117.58H1943V1434.18q0-29.39-9.74-43.32T1901,1376.92a54,54,0,0,0-29.78,8.59q-13.37,8.6-30.16,25.77v138.19h-16.79Z"/></g><path class="cls-5" d="M684.67,1297.83h14.1L585.58,1620.7h-14.1Z"/><path class="cls-2" d="M74.34,1362.39h26.52l2.73,34.32h1.17q9.75-17.93,23.6-28.47t30.22-10.53a50.59,50.59,0,0,1,20.28,3.9l-6.24,28.08a72.12,72.12,0,0,0-8.58-2.34,50.91,50.91,0,0,0-9.75-.78q-12.09,0-25.15,9.75t-22.82,33.93v121.67h-32Z"/><path class="cls-2" d="M206.16,1457.55q0-23.4,7.21-41.93a98.2,98.2,0,0,1,19.11-31.39,82.88,82.88,0,0,1,27.1-19.69,76.36,76.36,0,0,1,31.59-6.83q17.94,0,32.17,6.24a62.74,62.74,0,0,1,23.79,17.94A82.32,82.32,0,0,1,361.76,1410a124,124,0,0,1,5.07,36.66,109.55,109.55,0,0,1-1.17,17.55H237.74q1.95,30.81,18.92,48.74t44.26,17.94a74.5,74.5,0,0,0,25.15-4.09,110.82,110.82,0,0,0,22-10.73l11.31,21.06a161.1,161.1,0,0,1-27.69,13.65q-15.21,5.85-34.71,5.85a92.92,92.92,0,0,1-35.68-6.82,84.49,84.49,0,0,1-28.86-19.5,90.11,90.11,0,0,1-19.3-31Q206.15,1480.95,206.16,1457.55Zm132.59-14.43q0-29.25-12.29-44.65T292,1383.06a46.75,46.75,0,0,0-19.3,4.1,53.43,53.43,0,0,0-16.58,11.7,62.47,62.47,0,0,0-12.28,18.71,86.27,86.27,0,0,0-6.44,25.55Z"/><path class="cls-2" d="M402.7,1362.39h33.15L471.73,1470q4.27,14,8.77,28.08t8.77,27.68h1.57q4.28-13.63,8.57-27.68L508,1470l35.88-107.64h31.59l-67.08,189.53H470.94Z"/><g class="cls-3"><path class="cls-4" d="M743.33,1366.24h14.51l1.53,34h1.14q9.16-17.18,22.33-27.87a45.78,45.78,0,0,1,29.59-10.69,53.64,53.64,0,0,1,9.54.77,33.12,33.12,0,0,1,8.78,3l-3.82,15.27a37.37,37.37,0,0,0-8-2.48,55.2,55.2,0,0,0-8.78-.57q-12.21,0-25.77,10.49t-24.23,36.46v124.83h-16.8Z"/><path class="cls-4" d="M843.39,1458.23q0-22.51,6.68-40.46A92.59,92.59,0,0,1,868,1387.42a80.36,80.36,0,0,1,25.57-19.09,69.42,69.42,0,0,1,29.59-6.68q32.82,0,51.53,22.14t18.71,62.61v6.87a31.52,31.52,0,0,1-.77,6.87H860.57a106.39,106.39,0,0,0,5.35,31.88,75.27,75.27,0,0,0,13.93,25.19,63.5,63.5,0,0,0,21.57,16.41,65.53,65.53,0,0,0,28.25,5.92,78,78,0,0,0,26.91-4.39,87.92,87.92,0,0,0,22.33-12l6.87,13a226.28,226.28,0,0,1-24.24,12.21q-13.17,5.73-33.4,5.73a84.52,84.52,0,0,1-33-6.49,76.76,76.76,0,0,1-26.92-18.9,91.15,91.15,0,0,1-18.13-30.15Q843.4,1480.75,843.39,1458.23Zm134-11.07q0-35.51-14.51-53.25t-39.32-17.75a53,53,0,0,0-22.52,5,62.16,62.16,0,0,0-19.28,14.13,74.15,74.15,0,0,0-14.12,22.33,99.33,99.33,0,0,0-7.07,29.58Z"/><path class="cls-4" d="M1031.53,1516.25a127.58,127.58,0,0,0,25.19,16.61q13.37,6.69,33.21,6.68,21.77,0,32.64-10.88t10.88-25.38a27.69,27.69,0,0,0-4-14.89,37.6,37.6,0,0,0-10.5-11.07,80.87,80.87,0,0,0-14.31-8q-7.83-3.43-15.84-6.49-10.3-3.81-20.81-8a91.41,91.41,0,0,1-18.89-10.12,49.28,49.28,0,0,1-13.56-14.12q-5.15-8.2-5.15-20a47.67,47.67,0,0,1,3.82-18.89,42.88,42.88,0,0,1,11.45-15.65,56,56,0,0,1,18.51-10.5q10.89-3.81,25.39-3.82A78.88,78.88,0,0,1,1118,1367a82.35,82.35,0,0,1,23.86,13.74l-9.16,11.84a108.12,108.12,0,0,0-19.47-11.65q-10.31-4.77-24.43-4.77a52.27,52.27,0,0,0-18.33,2.86,40.25,40.25,0,0,0-12.78,7.45,28.51,28.51,0,0,0-7.64,10.68,32.19,32.19,0,0,0-2.48,12.22,24.22,24.22,0,0,0,3.62,13.55,35.38,35.38,0,0,0,9.74,9.74,75.36,75.36,0,0,0,13.94,7.44q7.82,3.24,15.84,6.3l21.37,8.4a89.6,89.6,0,0,1,19.28,10.31,49.24,49.24,0,0,1,13.93,15.07q5.35,9,5.35,22.33a49.42,49.42,0,0,1-4,19.66,45.7,45.7,0,0,1-12,16.42,60.73,60.73,0,0,1-19.48,11.26,76.2,76.2,0,0,1-26.33,4.2,94,94,0,0,1-37.79-7.45,117.64,117.64,0,0,1-29.4-17.75Z"/><path class="cls-4" d="M1182,1458.23q0-22.51,6.68-40.46a92.59,92.59,0,0,1,17.95-30.35,80.36,80.36,0,0,1,25.57-19.09,69.41,69.41,0,0,1,29.58-6.68q32.84,0,51.54,22.14t18.7,62.61v6.87a31.51,31.51,0,0,1-.76,6.87H1199.16a106.39,106.39,0,0,0,5.34,31.88,75.46,75.46,0,0,0,13.94,25.19,63.41,63.41,0,0,0,21.57,16.41,65.53,65.53,0,0,0,28.25,5.92,77.88,77.88,0,0,0,26.9-4.39,87.58,87.58,0,0,0,22.33-12l6.88,13a226.28,226.28,0,0,1-24.24,12.21q-13.17,5.73-33.4,5.73a84.52,84.52,0,0,1-33-6.49,76.67,76.67,0,0,1-26.92-18.9,91.15,91.15,0,0,1-18.13-30.15Q1182,1480.75,1182,1458.23Zm134-11.07q0-35.51-14.51-53.25t-39.32-17.75a52.94,52.94,0,0,0-22.51,5,62.16,62.16,0,0,0-19.28,14.13,74.15,74.15,0,0,0-14.12,22.33,99.33,99.33,0,0,0-7.07,29.58Z"/><path class="cls-4" d="M1353.75,1503.66q0-30.15,28.63-46.19t89.71-22.9a105.32,105.32,0,0,0-1.33-20.81,54.19,54.19,0,0,0-6.5-18.7,37.37,37.37,0,0,0-13.36-13.37q-8.58-5.14-22-5.15a78.24,78.24,0,0,0-34,7.25q-15.27,7.26-24.43,14.13l-7.63-12.6q4.95-3.43,12-7.63a112.23,112.23,0,0,1,15.65-7.64,138.85,138.85,0,0,1,18.9-5.91,90.65,90.65,0,0,1,21.37-2.49q16.42,0,27.49,5.54a48.4,48.4,0,0,1,17.94,15.08,60.33,60.33,0,0,1,9.74,22.33,127.14,127.14,0,0,1,2.86,27.67v117.2h-14.13l-1.91-23.67h-.76a203.93,203.93,0,0,1-30.34,19.66,72.91,72.91,0,0,1-34.55,8.59,67.19,67.19,0,0,1-20.62-3.06,50.71,50.71,0,0,1-17-9.16,41.31,41.31,0,0,1-11.65-15.65Q1353.75,1516.64,1353.75,1503.66Zm17.56-.77q0,19.86,11.45,28.25t27.11,8.4a64.63,64.63,0,0,0,30.53-7.63q14.5-7.64,31.69-22.15v-62.22q-28.24,3.45-47.52,8.4t-31.11,11.83q-11.85,6.88-17,15.66A37.78,37.78,0,0,0,1371.31,1502.89Z"/><path class="cls-4" d="M1539.37,1366.24h14.51l1.53,34h1.14q9.17-17.18,22.34-27.87a45.75,45.75,0,0,1,29.58-10.69,53.56,53.56,0,0,1,9.54.77,33.12,33.12,0,0,1,8.78,3l-3.82,15.27a37.3,37.3,0,0,0-8-2.48,55.43,55.43,0,0,0-8.79-.57q-12.21,0-25.76,10.49t-24.24,36.46v124.83h-16.8Z"/><path class="cls-4" d="M1642.77,1458.23q0-22.9,6.87-41t18.33-30.34a78.81,78.81,0,0,1,26.53-18.71,79.85,79.85,0,0,1,31.87-6.49q19.1,0,31.87,6.87a99.45,99.45,0,0,1,22,15.66l-9.92,11.83a83.77,83.77,0,0,0-19.47-13.93,51.53,51.53,0,0,0-24-5.54,58.35,58.35,0,0,0-26.15,5.92,63.25,63.25,0,0,0-21,16.8,82.33,82.33,0,0,0-14.12,25.76,101,101,0,0,0-5.15,33.21,106.85,106.85,0,0,0,4.77,32.83,78.44,78.44,0,0,0,13.36,25.58,59.22,59.22,0,0,0,21,16.6,62.47,62.47,0,0,0,27.29,5.92,60.05,60.05,0,0,0,26.92-6.11,92.13,92.13,0,0,0,21.94-14.89l8.79,11.46a108.5,108.5,0,0,1-26.34,17.56,74.15,74.15,0,0,1-32.07,6.87,82.72,82.72,0,0,1-33-6.49,76.65,76.65,0,0,1-26.34-18.71,85.94,85.94,0,0,1-17.56-30Q1642.77,1481.13,1642.77,1458.23Z"/><path class="cls-4" d="M1824.25,1275H1841v119.87a169.31,169.31,0,0,1,29.4-23.86q14.89-9.36,34-9.36,28.63,0,42,17.18t13.36,53.06v117.58H1943V1434.18q0-29.39-9.74-43.32T1901,1376.92a54,54,0,0,0-29.78,8.59q-13.37,8.6-30.16,25.77v138.19h-16.79Z"/></g><path class="cls-5" d="M684.67,1297.83h14.1L585.58,1620.7h-14.1Z"/></svg>